<svg id="Layer_1" data-name="Layer 1" xmlns="http://www.w3.org/2000/svg" viewBox="0 0 890.52 296.38"><defs><style>.cls-1{fill:#17161a;}.cls-2{fill:#08f;}</style></defs><title>logo-04</title><path class="cls-1" d="M98.63,86.05c0,10.33.45,20.44,1.8,26.51H69.65l-2-11H67C59.76,110.31,48.53,115,35.5,115,13.26,115,0,98.85,0,81.33c0-28.53,25.61-42,64.48-42V38c0-6.07-3.15-14.38-20-14.38-11.23,0-23.14,3.82-30.33,8.31l-6.29-22C15.5,5.62,30.55,0,50.55,0,87.17,0,98.63,21.57,98.63,47.63Zm-33-25.39c-18,0-31.9,4.27-31.9,17.3,0,8.76,5.84,13,13.48,13A18.89,18.89,0,0,0,64.93,78.41a24.47,24.47,0,0,0,.67-5.84Z"/><path class="cls-1" d="M125.81,37.74c0-13.7-.45-25.16-.9-35h29.65L156.14,18h.67C161.3,10.78,172.31.23,190.74.23c22.46,0,39.31,15.05,39.31,47.4v64.93H195.9V51.67c0-14.15-4.94-23.81-17.3-23.81-9.43,0-15,6.51-17.52,12.81-.9,2.24-1.12,5.39-1.12,8.53v63.36H125.81Z"/><path class="cls-1" d="M348.89,86.05c0,10.33.45,20.44,1.8,26.51H319.91l-2-11h-.68C310,110.31,298.79,115,285.76,115c-22.24,0-35.5-16.18-35.5-33.7,0-28.53,25.62-42,64.48-42V38c0-6.07-3.14-14.38-20-14.38-11.24,0-23.14,3.82-30.33,8.31l-6.29-22C265.77,5.62,280.82,0,300.81,0c36.62,0,48.08,21.57,48.08,47.63Zm-33-25.39c-18,0-31.91,4.27-31.91,17.3,0,8.76,5.84,13,13.48,13a18.87,18.87,0,0,0,17.75-12.58,24.47,24.47,0,0,0,.68-5.84Z"/><path class="cls-1" d="M375.84,82.9c6.3,3.82,19.33,8.09,29.44,8.09,10.33,0,14.6-3.37,14.6-9,0-5.84-3.37-8.53-15.95-12.8-22.92-7.64-31.68-20-31.46-33C372.47,15.5,390,0,417.18,0,430,0,441.22,3.15,448,6.52l-5.84,23.59c-4.94-2.7-14.6-6.29-23.81-6.29-8.32,0-13,3.36-13,8.76s4.26,8.09,17.74,12.8c20.9,7.19,29.44,18,29.66,33.93,0,20.67-15.95,35.72-47.4,35.72-14.38,0-27.19-3.37-35.5-7.86Z"/><path class="cls-1" d="M0,232.36,34.6,189c6.29-7.19,11.23-12.8,17.3-19.32v-.45H3.82V142H93.69v20.67l-33,41.56c-6.07,7-11.68,13.93-18,20v.45H95.48V251.9H0Z"/><path class="cls-1" d="M205.56,225.39c0,10.33.45,20.44,1.8,26.51H176.58l-2-11h-.68c-7.19,8.76-18.42,13.48-31.45,13.48-22.24,0-35.5-16.17-35.5-33.7,0-28.53,25.61-42,64.48-42v-1.35c0-6.06-3.14-14.38-20-14.38-11.24,0-23.14,3.82-30.33,8.32l-6.29-22c7.63-4.27,22.69-9.89,42.68-9.89,36.62,0,48.08,21.57,48.08,47.63Zm-33-25.39c-18,0-31.91,4.27-31.91,17.3,0,8.76,5.84,13,13.48,13a18.87,18.87,0,0,0,17.75-12.58,24.47,24.47,0,0,0,.68-5.84Z"/><path class="cls-1" d="M232.74,178.21c0-16.18-.23-26.74-.9-36.17h29.21l1.34,20.22h.9c5.62-16.18,18.88-22.92,29.66-22.92a34,34,0,0,1,7.19.68v32.12a51.08,51.08,0,0,0-9.21-.89c-12.58,0-21.12,6.73-23.37,17.29a40.31,40.31,0,0,0-.67,7.64V251.9H232.74Z"/><path class="cls-1" d="M388.65,238h-.45c-7,10.56-18,16.4-32.8,16.4-23.81,0-45.38-21.12-45.38-55.94,0-39.54,24.94-59.09,48.53-59.09,14.15,0,24.48,5.17,30.78,15.5l.44.23.9-13h32.8c-.22,10.78-.67,21.57-.67,33V296.38H388.65Zm0-49.88a22.58,22.58,0,0,0-.67-5.61c-1.8-8.76-9.21-16.4-19.77-16.4-15.51,0-23.59,13.25-23.59,31,0,18.2,9,30.33,23.36,30.33a20.24,20.24,0,0,0,19.77-15.5,27.69,27.69,0,0,0,.9-7.41Z"/><path class="cls-1" d="M541.41,225.39c0,10.33.45,20.44,1.8,26.51H512.43l-2-11h-.68c-7.19,8.76-18.42,13.48-31.45,13.48-22.24,0-35.5-16.17-35.5-33.7,0-28.53,25.62-42,64.48-42v-1.35c0-6.06-3.14-14.38-20-14.38-11.24,0-23.14,3.82-30.33,8.32l-6.29-22c7.64-4.27,22.69-9.89,42.68-9.89,36.63,0,48.08,21.57,48.08,47.63Zm-33-25.39c-18,0-31.91,4.27-31.91,17.3,0,8.76,5.84,13,13.48,13a18.86,18.86,0,0,0,17.75-12.58,24.47,24.47,0,0,0,.68-5.84Z"/><path class="cls-1" d="M589.49,142l9,45.16c2,11.23,4.27,23.36,6.07,35.94h.67c2-12.58,5.39-24.94,7.87-35.72L624.76,142h27l11,43.81c3.14,12.58,6.06,24.71,8.09,37.29h.45c1.57-12.35,3.82-24.94,6.51-37.52L687,142h33.48L686.77,251.9h-31.9l-10.34-38.42a327,327,0,0,1-7.19-34.37h-.45a293.5,293.5,0,0,1-7,34.15l-11,38.64H586.79L554.66,142Z"/><path class="cls-1" d="M771.68,111.48c0,9.44-7,17.08-18.43,17.08-10.78,0-17.75-7.64-17.75-17.08,0-9.66,7.2-17.07,18.2-17.07S771.45,101.82,771.68,111.48ZM736.4,251.9V142h34.15V251.9Z"/><path class="cls-2" d="M890.52,238.65V251.9H798.38V238.65Z"/></svg>