<svg width="20" height="20" viewBox="0 0 20 20" fill="none" xmlns="http://www.w3.org/2000/svg">
<path d="M16.9308 3.46308C15.6561 2.87818 14.2892 2.44725 12.8599 2.20044C12.8339 2.19567 12.8079 2.20758 12.7945 2.23139C12.6187 2.54407 12.4239 2.95198 12.2876 3.2726C10.7503 3.04246 9.22099 3.04246 7.71527 3.2726C7.57887 2.94485 7.37707 2.54407 7.20048 2.23139C7.18707 2.20837 7.16107 2.19647 7.13504 2.20044C5.70659 2.44646 4.33963 2.87739 3.06411 3.46308C3.05307 3.46784 3.04361 3.47578 3.03732 3.48609C0.444493 7.35973 -0.265792 11.1382 0.0826501 14.8697C0.0842267 14.888 0.0944749 14.9054 0.108665 14.9165C1.81934 16.1728 3.47642 16.9355 5.10273 17.441C5.12876 17.449 5.15634 17.4394 5.1729 17.418C5.55761 16.8927 5.90054 16.3387 6.19456 15.7562C6.21192 15.7221 6.19535 15.6816 6.15989 15.6681C5.61594 15.4618 5.098 15.2102 4.59978 14.9245C4.56037 14.9015 4.55721 14.8451 4.59347 14.8181C4.69831 14.7396 4.80318 14.6578 4.9033 14.5753C4.92141 14.5602 4.94665 14.557 4.96794 14.5665C8.24107 16.0609 11.7846 16.0609 15.0191 14.5665C15.0404 14.5562 15.0657 14.5594 15.0846 14.5745C15.1847 14.657 15.2896 14.7396 15.3952 14.8181C15.4314 14.8451 15.4291 14.9015 15.3897 14.9245C14.8914 15.2157 14.3735 15.4618 13.8288 15.6673C13.7933 15.6808 13.7775 15.7221 13.7949 15.7562C14.0952 16.3379 14.4381 16.8918 14.8157 17.4172C14.8315 17.4394 14.8599 17.449 14.8859 17.441C16.5201 16.9355 18.1772 16.1728 19.8879 14.9165C19.9028 14.9054 19.9123 14.8888 19.9139 14.8705C20.3309 10.5564 19.2154 6.80897 16.9568 3.48688C16.9513 3.47578 16.9419 3.46784 16.9308 3.46308ZM6.68335 12.5976C5.69792 12.5976 4.88594 11.6929 4.88594 10.5818C4.88594 9.47074 5.68217 8.56604 6.68335 8.56604C7.69239 8.56604 8.49651 9.47869 8.48073 10.5818C8.48073 11.6929 7.68451 12.5976 6.68335 12.5976ZM13.329 12.5976C12.3435 12.5976 11.5316 11.6929 11.5316 10.5818C11.5316 9.47074 12.3278 8.56604 13.329 8.56604C14.338 8.56604 15.1421 9.47869 15.1264 10.5818C15.1264 11.6929 14.338 12.5976 13.329 12.5976Z" />
</svg>
