<svg width="15" height="19" viewBox="0 0 15 19" xmlns="http://www.w3.org/2000/svg">
<path d="M10.3781 0C12.9187 0 14.9719 1.00313 15 3.55313V17.7844C15 17.9438 14.9625 18.1031 14.8875 18.2438C14.7656 18.4688 14.5594 18.6375 14.3063 18.7125C14.0625 18.7875 13.7906 18.75 13.5656 18.6188L7.49063 15.5813L1.40625 18.6188C1.26656 18.6928 1.10625 18.7406 0.946875 18.7406C0.421875 18.7406 0 18.3094 0 17.7844V3.55313C0 1.00313 2.0625 0 4.59375 0H10.3781ZM11.0156 5.6625H3.95625C3.55313 5.6625 3.225 5.99063 3.225 6.40313C3.225 6.81469 3.55313 7.14375 3.95625 7.14375H11.0156C11.4188 7.14375 11.7469 6.81469 11.7469 6.40313C11.7469 5.99063 11.4188 5.6625 11.0156 5.6625Z" />
</svg>
