<svg width="18" height="18" viewBox="0 0 18 18" xmlns="http://www.w3.org/2000/svg">
<path d="M12.6001 9.81014V13.5902C12.6001 16.7402 11.3401 18.0002 8.19009 18.0002H4.41005C1.26001 18.0002 0 16.7402 0 13.5902V9.81014C0 6.6601 1.26001 5.40009 4.41005 5.40009H8.19009C11.3401 5.40009 12.6001 6.6601 12.6001 9.81014Z" />
<path d="M13.5899 0H9.80982C7.03498 0 5.73362 0.984692 5.46251 3.36515C5.40579 3.86316 5.81823 4.27505 6.31946 4.27505H8.1898C11.9698 4.27505 13.7249 6.03007 13.7249 9.81011V11.6804C13.7249 12.1816 14.1367 12.5941 14.6348 12.5374C17.0152 12.2662 17.9999 10.9649 17.9999 8.19009V4.41005C17.9999 1.26001 16.7399 0 13.5899 0Z" />
</svg>
