<svg width="14" height="14" viewBox="0 0 14 14" xmlns="http://www.w3.org/2000/svg">
<path d="M12.57 0.5115C11.89 -0.1705 10.79 -0.1705 10.09 0.5115L6.55 4.0695L2.99 0.5115C2.29 -0.1705 1.19 -0.1705 0.51 0.5115C-0.17 1.1915 -0.17 2.3115 0.51 2.9895L4.07 6.5515L0.51 10.0915C-0.17 10.7915 -0.17 11.8915 0.51 12.5695C0.85 12.9095 1.31 13.0915 1.75 13.0915C2.21 13.0915 2.65 12.9095 2.99 12.5695L6.55 9.0315L10.11 12.5695C10.45 12.9315 10.89 13.0915 11.33 13.0915C11.79 13.0915 12.23 12.9095 12.57 12.5695C13.25 11.8915 13.25 10.7915 12.57 10.1115L9.01 6.5515L12.57 2.9895C13.25 2.3115 13.25 1.1915 12.57 0.5115Z" />
</svg>
