<svg width="14" height="15" viewBox="0 0 14 15"  xmlns="http://www.w3.org/2000/svg">
<path d="M12.5024 5.09989C12.6473 5.09989 12.7787 5.16311 12.8826 5.26993C12.9794 5.38401 13.0282 5.52571 13.014 5.67541C13.014 5.72482 12.6268 10.6225 12.4056 12.6841C12.267 13.9492 11.4515 14.7173 10.2281 14.7384C9.28748 14.7594 8.36803 14.7667 7.46272 14.7667C6.50157 14.7667 5.56163 14.7594 4.64924 14.7384C3.46689 14.71 2.65062 13.9281 2.51917 12.6841C2.29161 10.6153 1.91139 5.72482 1.90432 5.67541C1.89725 5.52571 1.94531 5.38401 2.04284 5.26993C2.13895 5.16311 2.27747 5.09989 2.42306 5.09989H12.5024ZM8.96034 0.233276C9.60275 0.233276 10.1766 0.681628 10.3427 1.32109L10.4614 1.85156C10.5575 2.28392 10.9321 2.58985 11.3632 2.58985H13.482C13.7647 2.58985 14 2.82456 14 3.12322V3.39935C14 3.69074 13.7647 3.93272 13.482 3.93272H1.43866C1.15526 3.93272 0.919922 3.69074 0.919922 3.39935V3.12322C0.919922 2.82456 1.15526 2.58985 1.43866 2.58985H3.55742C3.98782 2.58985 4.36238 2.28392 4.4592 1.85228L4.57016 1.3567C4.7426 0.681628 5.3101 0.233276 5.95958 0.233276H8.96034Z"/>
</svg>
