<svg width="15" height="15" viewBox="0 0 15 15" xmlns="http://www.w3.org/2000/svg">
<path d="M14.1581 13.2944C14.6224 13.2944 15 13.6769 15 14.1472C15 14.6184 14.6224 15 14.1581 15H9.39974C8.93548 15 8.55789 14.6184 8.55789 14.1472C8.55789 13.6769 8.93548 13.2944 9.39974 13.2944H14.1581ZM10.8582 0.582553L12.0874 1.55899C12.5914 1.95314 12.9275 2.47271 13.0424 3.01916C13.1751 3.62025 13.0336 4.21059 12.6357 4.7212L5.31366 14.1899C4.97763 14.6199 4.48242 14.8618 3.95185 14.8707L1.03366 14.9066C0.874489 14.9066 0.741844 14.7991 0.706472 14.6468L0.0432487 11.7712C-0.07171 11.2427 0.0432487 10.6963 0.379282 10.2752L5.57011 3.55664C5.65854 3.44915 5.81771 3.43213 5.92383 3.51185L8.10805 5.24973C8.24953 5.36618 8.44408 5.42889 8.64747 5.40201C9.08077 5.34827 9.37259 4.95411 9.32838 4.53308C9.30185 4.31808 9.19573 4.13892 9.05424 4.00455C9.01003 3.96872 6.93193 2.30251 6.93193 2.30251C6.79929 2.19501 6.77276 1.99793 6.87887 1.86446L7.70127 0.797548C8.46177 -0.178886 9.78821 -0.268467 10.8582 0.582553Z" />
</svg>
