<svg width="14" height="16" viewBox="0 0 14 16" xmlns="http://www.w3.org/2000/svg">
<path d="M6.98745 0C9.51464 0 11.5481 1.93183 11.5481 4.3168V5.54348C12.9665 5.97357 14 7.22091 14 8.71072V12.6602C14 14.5046 12.4259 16 10.4854 16H3.51548C1.57406 16 0 14.5046 0 12.6602V8.71072C0 7.22091 1.03431 5.97357 2.45188 5.54348V4.3168C2.46025 1.93183 4.49372 0 6.98745 0ZM6.99582 9.10742C6.59414 9.10742 6.26778 9.41747 6.26778 9.79907V11.5639C6.26778 11.9535 6.59414 12.2635 6.99582 12.2635C7.40586 12.2635 7.73222 11.9535 7.73222 11.5639V9.79907C7.73222 9.41747 7.40586 9.10742 6.99582 9.10742ZM7.00418 1.39124C5.30544 1.39124 3.92469 2.69502 3.91632 4.3009V5.37096H10.0837V4.3168C10.0837 2.70297 8.70293 1.39124 7.00418 1.39124Z" />
</svg>
