<svg width="110" height="51" viewBox="0 0 110 51" xmlns="http://www.w3.org/2000/svg">
<path d="M19.1538 9.90924L8.20748 48.1731C8.14492 48.3809 8.03528 48.5709 7.88739 48.7276C7.7395 48.8844 7.55751 49.0036 7.3561 49.0755C5.20032 49.8423 2.85578 49.8597 0.689251 49.1251L0.435574 49.0401C0.276539 48.9871 0.144635 48.872 0.0687538 48.7201C-0.00712749 48.5682 -0.0207996 48.3919 0.0307323 48.2297C1.60666 43.2291 12.4053 7.21605 14.1046 2.25789C15.1228 -0.707803 23.4629 -0.707803 24.6791 2.12341C26.9223 7.34346 34.0617 39.1061 34.0617 39.1061C34.0617 39.1061 41.7329 7.24437 43.6181 2.12341C44.6606 -0.707803 53.1483 -0.520235 54.2899 2.14464C56.4757 7.25498 64.642 39.1061 64.642 39.1061C64.642 39.1061 70.97 7.21074 73.1558 2.12341C74.3721 -0.707803 83.2334 -0.707803 84.9709 2.12341C86.427 4.49632 93.0765 15.485 94.4613 18.6488C98.0457 17.2757 101.662 15.853 105.505 15.4531C105.679 15.4354 105.835 15.4177 105.998 15.3894C107.635 15.0974 111.6 15.6159 109.3 17.3978C109.043 17.5918 108.768 17.7584 108.478 17.895C107.536 18.3533 106.521 18.5745 105.501 18.8169C101.974 19.6522 99.0726 20.6909 96.2144 22.5081C100.232 33.357 104.515 49.7179 88.1367 50.8999C79.8227 51.8572 73.7883 45.8444 76.1478 37.3331C77.8749 31.3911 82.25 26.6594 87.0542 23.0443C85.0891 18.2082 79.0617 9.90924 79.0617 9.90924L69.7138 48.389C69.6508 48.6336 69.5263 48.8574 69.3527 49.0383C69.1791 49.2191 68.9622 49.3509 68.7234 49.4206L68.475 49.4931C65.9698 50.2222 63.3142 50.2222 60.809 49.4931L60.5293 49.4117C60.2986 49.3449 60.0882 49.2198 59.9175 49.0481C59.7468 48.8765 59.6214 48.6638 59.5528 48.4297L49.1173 9.90924L39.1457 48.4155C39.0788 48.6531 38.9536 48.8694 38.7818 49.044C38.61 49.2186 38.3974 49.3458 38.164 49.4135L37.8947 49.4931C35.3895 50.2222 32.7339 50.2222 30.2288 49.4931L29.9699 49.417C29.734 49.3481 29.5194 49.2187 29.3466 49.0411C29.1738 48.8636 29.0486 48.644 28.983 48.4031L19.1538 9.90924ZM88.552 47.0866C93.0226 42.4027 90.6213 34.2223 89.1253 28.6413C84.7746 33.6684 81.4247 42.9336 88.552 47.0813V47.0866Z"/>
</svg>
