<svg width="25" height="26" viewBox="0 0 25 26" xmlns="http://www.w3.org/2000/svg">
<path d="M13.5459 0.850037C14.4913 0.850037 15.3471 1.37504 15.8198 2.15004C16.0497 2.52504 16.203 2.98754 16.1647 3.47504C16.1392 3.85004 16.2541 4.22504 16.4585 4.57504C17.11 5.63754 18.5535 6.03754 19.6777 5.43754C20.9424 4.71254 22.5392 5.15004 23.2673 6.38754L24.1232 7.86254C24.8641 9.10004 24.4553 10.6875 23.1779 11.4C22.0921 12.0375 21.7088 13.45 22.3603 14.525C22.5647 14.8625 22.7947 15.15 23.1523 15.325C23.5995 15.5625 23.9444 15.9375 24.1871 16.3125C24.6597 17.0875 24.6214 18.0375 24.1615 18.875L23.2673 20.375C22.7947 21.175 21.9132 21.675 21.0062 21.675C20.5591 21.675 20.0609 21.55 19.6521 21.3C19.32 21.0875 18.9368 21.0125 18.528 21.0125C17.2633 21.0125 16.203 22.05 16.1647 23.2875C16.1647 24.725 14.9895 25.85 13.5204 25.85H11.7831C10.3012 25.85 9.12598 24.725 9.12598 23.2875C9.10043 22.05 8.04015 21.0125 6.77548 21.0125C6.35392 21.0125 5.97069 21.0875 5.65133 21.3C5.24254 21.55 4.73156 21.675 4.29723 21.675C3.37747 21.675 2.49603 21.175 2.02338 20.375L1.14194 18.875C0.669284 18.0625 0.643735 17.0875 1.11639 16.3125C1.32078 15.9375 1.70402 15.5625 2.13835 15.325C2.49603 15.15 2.72597 14.8625 2.94314 14.525C3.58186 13.45 3.19863 12.0375 2.1128 11.4C0.848126 10.6875 0.439343 9.10004 1.16749 7.86254L2.02338 6.38754C2.7643 5.15004 4.34833 4.71254 5.62578 5.43754C6.73716 6.03754 8.18067 5.63754 8.83217 4.57504C9.03656 4.22504 9.15153 3.85004 9.12598 3.47504C9.10043 2.98754 9.24095 2.52504 9.48367 2.15004C9.95632 1.37504 10.8122 0.875037 11.7447 0.850037H13.5459ZM12.6645 9.82504C10.6589 9.82504 9.03656 11.4 9.03656 13.3625C9.03656 15.325 10.6589 16.8875 12.6645 16.8875C14.6701 16.8875 16.2541 15.325 16.2541 13.3625C16.2541 11.4 14.6701 9.82504 12.6645 9.82504Z" />
</svg>
