<svg width="14" height="16" viewBox="0 0 14 16" xmlns="http://www.w3.org/2000/svg">
<path d="M6.98243 0C8.93222 0 10.6552 1.16967 11.2912 2.9023C11.3582 3.07723 11.3414 3.26807 11.2577 3.43505C11.1741 3.60203 11.0243 3.72925 10.8393 3.78571C10.4628 3.91214 10.0444 3.7221 9.90209 3.35633C9.47531 2.17871 8.3046 1.39151 6.99916 1.39151C5.29121 1.39151 3.9113 2.69635 3.90209 4.29381V5.36726L3.89205 5.36885H10.4845C12.4259 5.36885 14 6.86453 14 8.70927V12.6596C14 14.5043 12.4259 16 10.4845 16H3.51464C1.57406 16 0 14.5043 0 12.6596V8.70927C0 7.19213 1.07113 5.92545 2.52887 5.51834L2.43766 5.52868V4.30971C2.45439 1.93301 4.4887 0 6.98243 0ZM6.99582 9.10605C6.59414 9.10605 6.26778 9.41616 6.26778 9.79783V11.5631C6.26778 11.9527 6.59414 12.2628 6.99582 12.2628C7.40586 12.2628 7.73222 11.9527 7.73222 11.5631V9.79783C7.73222 9.41616 7.40586 9.10605 6.99582 9.10605Z" />
</svg>
