<svg width="18" height="18" viewBox="0 0 18 18" xmlns="http://www.w3.org/2000/svg">
<path d="M12.906 0C15.957 0 18 2.142 18 5.328V12.6819C18 15.8589 15.957 18 12.906 18H5.103C2.052 18 0 15.8589 0 12.6819V5.328C0 2.142 2.052 0 5.103 0H12.906ZM11.709 6.2739C11.403 5.967 10.908 5.967 10.593 6.2739L9 7.875L7.398 6.2739C7.083 5.967 6.588 5.967 6.282 6.2739C5.976 6.5799 5.976 7.0839 6.282 7.389L7.884 8.9919L6.282 10.5849C5.976 10.8999 5.976 11.3949 6.282 11.7C6.435 11.853 6.642 11.9349 6.84 11.9349C7.047 11.9349 7.245 11.853 7.398 11.7L9 10.1079L10.602 11.7C10.755 11.8629 10.953 11.9349 11.151 11.9349C11.358 11.9349 11.556 11.853 11.709 11.7C12.015 11.3949 12.015 10.8999 11.709 10.5939L10.107 8.9919L11.709 7.389C12.015 7.0839 12.015 6.5799 11.709 6.2739Z" />
</svg>
